<?xml version="1.0" encoding="UTF-8"?>
<svg id="Layer_1" data-name="Layer 1" xmlns="http://www.w3.org/2000/svg" viewBox="0 0 258 56">
  <defs>
    <style>
      .cls-1 {
        fill: #071130;
      }

      .cls-2 {
        fill: #38c0e8;
      }
    </style>
  </defs>
  <g>
    <polygon class="cls-1" points="112.24 15.84 107.86 15.84 107.86 40.92 130.85 40.92 130.85 36.83 112.24 36.83 112.24 15.84"/>
    <rect class="cls-1" x="134.38" y="15.84" width="4.38" height="25.08"/>
    <path class="cls-1" d="m164.37,39.45s-.02.02-.03.02c-2.19,1.54-4.89,2.33-8.03,2.33-1.82,0-3.56-.35-5.19-1.05-1.61-.69-3.05-1.66-4.25-2.86-1.21-1.21-2.17-2.63-2.86-4.23-.69-1.61-1.05-3.36-1.05-5.21s.35-3.56,1.04-5.18c.69-1.61,1.66-3.05,2.86-4.25,1.21-1.21,2.64-2.17,4.25-2.86,1.62-.69,3.36-1.05,5.19-1.05,3.11,0,5.78.76,7.96,2.28l-3.74,2.82c-1.22-.6-2.64-.92-4.22-.92-1.21,0-2.37.25-3.46.72-1.09.48-2.06,1.14-2.87,1.97-.82.83-1.47,1.81-1.94,2.93-.47,1.11-.7,2.3-.7,3.54s.24,2.43.7,3.54c.47,1.12,1.12,2.1,1.94,2.93.82.83,1.79,1.5,2.87,1.97,1.08.48,2.25.72,3.46.72,1.64,0,3.1-.33,4.35-.98l3.72,2.81Z"/>
    <g>
      <g>
        <path class="cls-2" d="m101.64,19.56l-3.71,2.49c-.47-.56-1.02-1.03-1.65-1.43-1.37-.87-3.03-1.32-4.93-1.32-.4,0-.81.03-1.19.08v-4.21c.39-.04.79-.05,1.19-.05,3.14,0,5.85.78,8.03,2.33.86.61,1.61,1.32,2.26,2.12Z"/>
        <path class="cls-2" d="m102.09,36.74c-.74,1.07-1.64,1.98-2.71,2.74-2.19,1.54-4.89,2.32-8.03,2.32-1.82,0-3.57-.35-5.19-1.04-1.61-.69-3.05-1.66-4.25-2.86-1.21-1.21-2.17-2.63-2.86-4.23-.69-1.61-1.05-3.36-1.05-5.2,0-.39.02-.78.05-1.17h4.39c-.05.38-.07.77-.07,1.17,0,1.24.24,2.43.7,3.54.47,1.11,1.12,2.1,1.94,2.93.82.83,1.78,1.5,2.87,1.97,1.08.48,2.24.72,3.46.72,1.9,0,3.56-.44,4.93-1.32.85-.54,1.56-1.23,2.12-2.06l3.7,2.5Z"/>
      </g>
      <circle class="cls-1" cx="91.63" cy="27.63" r="3.5"/>
    </g>
    <polygon class="cls-1" points="172.37 15.84 155.79 28.38 172.37 40.92 179.61 40.92 162.87 28.38 179.61 15.84 172.37 15.84"/>
    <rect class="cls-1" x="78" y="48.3" width="73.27" height="1.23" rx=".61" ry=".61"/>
  </g>
  <g>
    <path class="cls-1" d="m87.66,10.86h-6.07l-1.27,2.15h-2.18l6.51-10.59,6.42,10.59h-2.18l-1.24-2.15Zm-.97-1.69l-2.03-3.53-2.07,3.53h4.1Z"/>
    <path class="cls-1" d="m102.92,2.65v10.59l-8.69-6.99v6.76h-1.81V2.42l8.69,7V2.65h1.81Z"/>
    <path class="cls-1" d="m113.78,10.86h-6.07l-1.27,2.15h-2.18l6.51-10.59,6.42,10.59h-2.18l-1.24-2.15Zm-.97-1.69l-2.03-3.53-2.07,3.53h4.1Z"/>
    <path class="cls-1" d="m128.02,13.01h-9.5V2.65h1.81v8.68h7.69v1.69Z"/>
    <path class="cls-1" d="m133.42,8.85v4.16h-1.81v-4.16l-5.42-6.2h2.48l3.84,4.74,3.84-4.74h2.48l-5.42,6.2Z"/>
    <path class="cls-1" d="m149.1,4.34h-4.04v8.68h-1.81V4.34h-4.04v-1.69h9.89v1.69Z"/>
    <path class="cls-1" d="m150.55,13.01V2.65h1.81v10.36h-1.81Z"/>
    <path class="cls-1" d="m166.12,6.24h-1.81v-1.02c0-.49-.39-.88-.88-.88h-6.15c-.49,0-.88.39-.88.88v5.23c0,.49.39.88.88.88h6.15c.49,0,.88-.39.88-.88v-1.02h1.81v1.17c0,1.33-1.08,2.41-2.41,2.41h-6.7c-1.33,0-2.41-1.08-2.41-2.41v-5.54c0-1.33,1.08-2.41,2.41-2.41h6.7c1.33,0,2.41,1.08,2.41,2.41v1.17Z"/>
    <path class="cls-1" d="m178.58,9.4v1.2c0,1.33-1.08,2.41-2.41,2.41h-8.13v-1.69h7.85c.49,0,.88-.39.88-.88v-.89c0-.49-.39-.88-.88-.88h-5.66c-1.33,0-2.41-1.08-2.41-2.41v-1.2c0-1.33,1.08-2.41,2.41-2.41h7.8v1.69h-7.52c-.49,0-.88.39-.88.88v.89c0,.49.39.88.88.88h5.66c1.33,0,2.41,1.08,2.41,2.41Z"/>
  </g>
  <g>
    <path class="cls-2" d="m154.19,53.37v-9.4h1.64v9.4h-1.64Z"/>
    <path class="cls-2" d="m167.51,43.97v9.61l-7.88-6.34v6.13h-1.64v-9.61l7.88,6.34v-6.13h1.64Z"/>
    <path class="cls-2" d="m180,47.22h-1.64v-.92c0-.44-.36-.8-.8-.8h-5.58c-.44,0-.8.36-.8.8v4.74c0,.44.36.8.8.8h5.58c.44,0,.8-.36.8-.8v-.92h1.64v1.06c0,1.21-.98,2.19-2.19,2.19h-6.08c-1.21,0-2.19-.98-2.19-2.19v-5.02c0-1.21.98-2.19,2.19-2.19h6.08c1.21,0,2.19.98,2.19,2.19v1.06Z"/>
  </g>
</svg>