<?xml version="1.0" encoding="UTF-8"?>
<svg id="Layer_1" data-name="Layer 1" xmlns="http://www.w3.org/2000/svg" viewBox="0 0 180 53">
  <defs>
    <style>
      .cls-1 {
        fill: #071130;
      }

      .cls-2 {
        fill: #38c0e8;
      }
    </style>
  </defs>
  <g>
    <polygon class="cls-1" points="73.99 14.88 69.81 14.88 69.81 38.84 91.77 38.84 91.77 34.94 73.99 34.94 73.99 14.88"/>
    <rect class="cls-1" x="95.14" y="14.88" width="4.18" height="23.96"/>
    <path class="cls-1" d="m123.79,37.44s-.02.02-.03.02c-2.09,1.47-4.67,2.22-7.67,2.22-1.74,0-3.4-.34-4.96-1-1.54-.66-2.91-1.58-4.06-2.73-1.15-1.15-2.07-2.51-2.73-4.04-.66-1.53-1-3.21-1-4.97s.34-3.4,1-4.95c.66-1.54,1.58-2.91,2.73-4.06,1.16-1.16,2.52-2.07,4.06-2.73,1.55-.66,3.21-1,4.96-1,2.97,0,5.53.73,7.6,2.17l-3.57,2.69c-1.17-.58-2.52-.87-4.03-.87-1.16,0-2.27.23-3.3.69-1.04.46-1.96,1.09-2.74,1.89-.78.79-1.41,1.73-1.85,2.8-.45,1.06-.67,2.2-.67,3.38s.23,2.32.67,3.38c.45,1.07,1.07,2.01,1.85,2.8.78.8,1.71,1.43,2.74,1.89,1.03.46,2.15.69,3.3.69,1.57,0,2.96-.31,4.15-.93l3.55,2.69Z"/>
    <g>
      <g>
        <path class="cls-2" d="m63.86,18.44l-3.54,2.38c-.45-.53-.97-.99-1.57-1.37-1.31-.84-2.9-1.26-4.71-1.26-.39,0-.77.03-1.14.08v-4.03c.37-.04.76-.05,1.14-.05,3,0,5.58.75,7.67,2.22.82.58,1.54,1.26,2.16,2.03Z"/>
        <path class="cls-2" d="m64.3,34.85c-.7,1.02-1.57,1.89-2.59,2.62-2.09,1.47-4.67,2.22-7.67,2.22-1.74,0-3.41-.34-4.96-1-1.54-.66-2.91-1.58-4.06-2.73-1.15-1.15-2.07-2.51-2.73-4.05-.66-1.53-1-3.21-1-4.97,0-.37.02-.75.05-1.12h4.2c-.05.37-.07.74-.07,1.12,0,1.19.23,2.32.67,3.38.45,1.06,1.07,2,1.85,2.8.78.79,1.7,1.43,2.75,1.89,1.03.46,2.14.69,3.3.69,1.82,0,3.4-.42,4.71-1.26.81-.52,1.49-1.18,2.02-1.97l3.53,2.39Z"/>
      </g>
      <circle class="cls-1" cx="54.31" cy="26.15" r="3.35"/>
    </g>
    <polygon class="cls-1" points="131.43 14.88 115.59 26.86 131.43 38.84 138.35 38.84 122.35 26.86 138.35 14.88 131.43 14.88"/>
    <rect class="cls-1" x="41.28" y="45.89" width="69.99" height="1.17" rx=".59" ry=".59"/>
  </g>
  <g>
    <path class="cls-1" d="m50.51,10.13h-5.8l-1.21,2.06h-2.08l6.22-10.12,6.13,10.12h-2.08l-1.18-2.06Zm-.93-1.61l-1.94-3.37-1.98,3.37h3.92Z"/>
    <path class="cls-1" d="m65.09,2.29v10.12l-8.3-6.67v6.46h-1.73V2.06l8.3,6.68V2.29h1.73Z"/>
    <path class="cls-1" d="m75.46,10.13h-5.8l-1.21,2.06h-2.08l6.22-10.12,6.13,10.12h-2.08l-1.18-2.06Zm-.93-1.61l-1.94-3.37-1.98,3.37h3.92Z"/>
    <path class="cls-1" d="m89.07,12.19h-9.08V2.28h1.73v8.29h7.35v1.61Z"/>
    <path class="cls-1" d="m94.22,8.21v3.97h-1.73v-3.97l-5.18-5.93h2.37l3.67,4.53,3.67-4.53h2.37l-5.18,5.93Z"/>
    <path class="cls-1" d="m109.2,3.9h-3.86v8.29h-1.73V3.9h-3.86v-1.61h9.45v1.61Z"/>
    <path class="cls-1" d="m110.58,12.19V2.28h1.73v9.9h-1.73Z"/>
    <path class="cls-1" d="m125.45,5.71h-1.73v-.97c0-.46-.38-.84-.84-.84h-5.87c-.46,0-.84.38-.84.84v4.99c0,.46.38.84.84.84h5.87c.46,0,.84-.37.84-.84v-.97h1.73v1.12c0,1.27-1.04,2.31-2.31,2.31h-6.4c-1.27,0-2.31-1.03-2.31-2.31v-5.29c0-1.27,1.03-2.31,2.31-2.31h6.4c1.27,0,2.31,1.03,2.31,2.31v1.12Z"/>
    <path class="cls-1" d="m137.37,8.73v1.14c0,1.27-1.03,2.31-2.31,2.31h-7.76v-1.61h7.5c.46,0,.84-.38.84-.84v-.85c0-.46-.38-.84-.84-.84h-5.4c-1.27,0-2.31-1.03-2.31-2.31v-1.14c0-1.27,1.03-2.31,2.31-2.31h7.45v1.61h-7.19c-.46,0-.84.38-.84.84v.85c0,.46.38.84.84.84h5.4c1.27,0,2.31,1.03,2.31,2.31Z"/>
  </g>
  <g>
    <path class="cls-2" d="m114.07,50.74v-8.98h1.57v8.98h-1.57Z"/>
    <path class="cls-2" d="m126.78,41.76v9.18l-7.53-6.05v5.86h-1.57v-9.18l7.53,6.06v-5.86h1.57Z"/>
    <path class="cls-2" d="m138.72,44.86h-1.57v-.88c0-.42-.34-.76-.76-.76h-5.33c-.42,0-.76.34-.76.76v4.53c0,.42.34.76.76.76h5.33c.42,0,.76-.34.76-.76v-.88h1.57v1.01c0,1.15-.94,2.09-2.09,2.09h-5.81c-1.16,0-2.09-.94-2.09-2.09v-4.8c0-1.16.94-2.09,2.09-2.09h5.81c1.15,0,2.09.93,2.09,2.09v1.01Z"/>
  </g>
</svg>