<?xml version="1.0" encoding="UTF-8"?>
<svg id="Layer_1" data-name="Layer 1" xmlns="http://www.w3.org/2000/svg" viewBox="0 0 104.25 42">
  <defs>
    <style>
      .cls-1 {
        fill: #071130;
      }

      .cls-2 {
        fill: #38c0e8;
      }
    </style>
  </defs>
  <g>
    <polygon class="cls-1" points="38.28 9.62 34.66 9.62 34.66 30.35 53.66 30.35 53.66 26.97 38.28 26.97 38.28 9.62"/>
    <rect class="cls-1" x="56.57" y="9.62" width="3.62" height="20.73"/>
    <path class="cls-1" d="m81.36,29.13s-.02.01-.03.02c-1.81,1.27-4.04,1.92-6.64,1.92-1.51,0-2.95-.29-4.29-.86-1.33-.57-2.52-1.37-3.51-2.36-1-1-1.79-2.17-2.36-3.5-.57-1.33-.86-2.78-.86-4.3s.29-2.95.86-4.28c.57-1.33,1.37-2.52,2.36-3.51,1-1,2.18-1.79,3.51-2.36,1.34-.57,2.78-.86,4.29-.86,2.57,0,4.78.63,6.58,1.88l-3.09,2.33c-1.01-.5-2.18-.76-3.49-.76-1,0-1.96.2-2.86.59-.9.4-1.7.95-2.37,1.63-.68.69-1.22,1.5-1.6,2.42-.39.92-.58,1.9-.58,2.93s.2,2.01.58,2.93c.39.92.93,1.74,1.6,2.42.68.69,1.48,1.24,2.37,1.63.9.4,1.86.59,2.86.59,1.35,0,2.56-.27,3.59-.81l3.07,2.32Z"/>
    <g>
      <g>
        <path class="cls-2" d="m29.51,12.7l-3.06,2.06c-.39-.46-.84-.85-1.36-1.19-1.14-.72-2.51-1.09-4.08-1.09-.33,0-.67.02-.99.07v-3.48c.32-.03.66-.04.99-.04,2.6,0,4.83.65,6.64,1.92.71.5,1.33,1.09,1.86,1.75Z"/>
        <path class="cls-2" d="m29.89,26.89c-.61.88-1.35,1.64-2.24,2.26-1.81,1.27-4.04,1.92-6.64,1.92-1.51,0-2.95-.29-4.29-.86-1.33-.57-2.52-1.37-3.51-2.36-1-1-1.79-2.17-2.36-3.5s-.86-2.77-.86-4.3c0-.32.01-.65.04-.97h3.63c-.04.32-.06.64-.06.97,0,1.03.2,2.01.58,2.93.39.92.93,1.73,1.6,2.42.68.69,1.47,1.24,2.37,1.63.9.4,1.85.59,2.86.59,1.57,0,2.94-.36,4.08-1.09.7-.45,1.29-1.02,1.75-1.71l3.05,2.07Z"/>
      </g>
      <circle class="cls-1" cx="21.24" cy="19.37" r="2.9"/>
    </g>
    <polygon class="cls-1" points="87.96 9.62 74.26 19.98 87.96 30.35 93.95 30.35 80.12 19.98 93.95 9.62 87.96 9.62"/>
    <rect class="cls-1" x="9.98" y="36.45" width="60.55" height="1.01" rx=".51" ry=".51"/>
  </g>
  <g>
    <path class="cls-1" d="m38.46,6.28h-3.66l-.76,1.3h-1.31l3.93-6.39,3.87,6.39h-1.31l-.75-1.3Zm-.59-1.02l-1.22-2.13-1.25,2.13h2.47Z"/>
    <path class="cls-1" d="m47.66,1.33v6.38l-5.24-4.21v4.07h-1.09V1.19l5.24,4.22V1.33h1.09Z"/>
    <path class="cls-1" d="m54.2,6.28h-3.66l-.76,1.3h-1.31l3.93-6.39,3.87,6.39h-1.31l-.75-1.3Zm-.59-1.02l-1.22-2.13-1.25,2.13h2.47Z"/>
    <path class="cls-1" d="m62.79,7.58h-5.73V1.33h1.09v5.23h4.64v1.02Z"/>
    <path class="cls-1" d="m66.04,5.07v2.51h-1.09v-2.51l-3.27-3.74h1.5l2.31,2.86,2.32-2.86h1.5l-3.27,3.74Z"/>
    <path class="cls-1" d="m75.5,2.35h-2.44v5.23h-1.09V2.35h-2.44v-1.02h5.96v1.02Z"/>
    <path class="cls-1" d="m76.37,7.58V1.33h1.09v6.25h-1.09Z"/>
    <path class="cls-1" d="m85.76,3.49h-1.09v-.61c0-.29-.24-.53-.53-.53h-3.71c-.29,0-.53.24-.53.53v3.15c0,.29.24.53.53.53h3.71c.29,0,.53-.24.53-.53v-.61h1.09v.71c0,.8-.65,1.46-1.46,1.46h-4.04c-.8,0-1.46-.65-1.46-1.46v-3.34c0-.8.65-1.46,1.46-1.46h4.04c.8,0,1.46.65,1.46,1.46v.71Z"/>
    <path class="cls-1" d="m93.27,5.4v.72c0,.8-.65,1.46-1.46,1.46h-4.9v-1.02h4.73c.29,0,.53-.24.53-.53v-.54c0-.29-.24-.53-.53-.53h-3.41c-.8,0-1.46-.65-1.46-1.46v-.72c0-.8.65-1.46,1.45-1.46h4.7v1.02h-4.53c-.29,0-.53.24-.53.53v.54c0,.29.24.53.53.53h3.41c.8,0,1.46.65,1.46,1.46Z"/>
  </g>
  <g>
    <path class="cls-2" d="m72.94,40.64v-7.77h1.36v7.77h-1.36Z"/>
    <path class="cls-2" d="m83.95,32.87v7.94l-6.52-5.24v5.07h-1.36v-7.94l6.52,5.24v-5.07h1.36Z"/>
    <path class="cls-2" d="m94.27,35.56h-1.36v-.76c0-.36-.3-.66-.66-.66h-4.61c-.36,0-.66.3-.66.66v3.92c0,.36.3.66.66.66h4.61c.36,0,.66-.29.66-.66v-.76h1.36v.88c0,1-.81,1.81-1.81,1.81h-5.02c-1,0-1.81-.81-1.81-1.81v-4.15c0-1,.81-1.81,1.81-1.81h5.02c1,0,1.81.81,1.81,1.81v.88Z"/>
  </g>
</svg>