<?xml version="1.0" encoding="utf-8"?>
<!-- Generator: Adobe Illustrator 25.4.1, SVG Export Plug-In . SVG Version: 6.00 Build 0)  -->
<svg version="1.1" id="Layer_1" xmlns="http://www.w3.org/2000/svg" xmlns:xlink="http://www.w3.org/1999/xlink" x="0px" y="0px"
	 viewBox="0 0 29 28" style="enable-background:new 0 0 29 28;" xml:space="preserve">
<style type="text/css">
	.st0{fill:#071130;}
	.st1{fill:#38C0E8;}
</style>
<g>
	<polygon class="st0" points="9.88,7.97 8.65,7.97 8.65,14.97 15.07,14.97 15.07,13.83 9.88,13.83 	"/>
	<rect x="16.06" y="7.97" class="st0" width="1.22" height="7"/>
	<path class="st0" d="M24.43,14.56C24.43,14.56,24.42,14.57,24.43,14.56c-0.62,0.44-1.37,0.66-2.25,0.66c-0.51,0-1-0.1-1.45-0.29
		c-0.45-0.19-0.85-0.46-1.19-0.8c-0.34-0.34-0.6-0.73-0.8-1.18c-0.19-0.45-0.29-0.94-0.29-1.45c0-0.51,0.1-1,0.29-1.45
		c0.19-0.45,0.46-0.85,0.8-1.19c0.34-0.34,0.74-0.61,1.19-0.8c0.45-0.19,0.94-0.29,1.45-0.29c0.87,0,1.61,0.21,2.22,0.64l-1.04,0.79
		c-0.34-0.17-0.74-0.26-1.18-0.26c-0.34,0-0.66,0.07-0.97,0.2c-0.3,0.13-0.57,0.32-0.8,0.55c-0.23,0.23-0.41,0.51-0.54,0.82
		c-0.13,0.31-0.2,0.64-0.2,0.99c0,0.35,0.07,0.68,0.2,0.99c0.13,0.31,0.31,0.59,0.54,0.82c0.23,0.23,0.5,0.42,0.8,0.55
		c0.3,0.13,0.63,0.2,0.97,0.2c0.46,0,0.87-0.09,1.21-0.27L24.43,14.56z"/>
	<g>
		<path class="st1" d="M14.54,17.98h-1.56l-0.33,0.56h-0.56l1.68-2.73l1.65,2.73h-0.56L14.54,17.98z M14.29,17.55l-0.52-0.91
			l-0.53,0.91H14.29z"/>
		<path class="st1" d="M18.45,17.61v0.31c0,0.34-0.28,0.62-0.62,0.62h-2.09V18.1h2.02c0.13,0,0.23-0.1,0.23-0.23v-0.23
			c0-0.13-0.1-0.23-0.23-0.23H16.3c-0.34,0-0.62-0.28-0.62-0.62v-0.31c0-0.34,0.28-0.62,0.62-0.62h2.01v0.44h-1.94
			c-0.13,0-0.23,0.1-0.23,0.23v0.23c0,0.13,0.1,0.23,0.23,0.23h1.46C18.17,16.99,18.45,17.26,18.45,17.61z"/>
		<path class="st1" d="M21.63,17.61v0.31c0,0.34-0.28,0.62-0.62,0.62h-2.09V18.1h2.02c0.13,0,0.23-0.1,0.23-0.23v-0.23
			c0-0.13-0.1-0.23-0.23-0.23h-1.46c-0.34,0-0.62-0.28-0.62-0.62v-0.31c0-0.34,0.28-0.62,0.62-0.62h2.01v0.44h-1.94
			c-0.13,0-0.23,0.1-0.23,0.23v0.23c0,0.13,0.1,0.23,0.23,0.23h1.46C21.35,16.99,21.63,17.26,21.63,17.61z"/>
		<path class="st1" d="M22.13,18.54v-2.67h0.47v2.67H22.13z"/>
		<path class="st1" d="M25.89,17.61v0.31c0,0.34-0.28,0.62-0.62,0.62h-2.09V18.1h2.02c0.13,0,0.23-0.1,0.23-0.23v-0.23
			c0-0.13-0.1-0.23-0.23-0.23h-1.46c-0.34,0-0.62-0.28-0.62-0.62v-0.31c0-0.34,0.28-0.62,0.62-0.62h2.01v0.44h-1.94
			c-0.13,0-0.23,0.1-0.23,0.23v0.23c0,0.13,0.1,0.23,0.23,0.23h1.46C25.61,16.99,25.89,17.26,25.89,17.61z"/>
		<path class="st1" d="M28.68,16.3h-1.04v2.24h-0.47V16.3h-1.04v-0.44h2.55V16.3z"/>
	</g>
	<g>
		<g>
			<path class="st1" d="M6.91,9.01L5.88,9.7C5.75,9.55,5.6,9.41,5.42,9.3C5.04,9.06,4.57,8.93,4.04,8.93
				c-0.11,0-0.22,0.01-0.33,0.02V7.78c0.11-0.01,0.22-0.01,0.33-0.01c0.88,0,1.63,0.22,2.24,0.65C6.52,8.59,6.74,8.78,6.91,9.01z"/>
			<path class="st1" d="M7.04,13.8c-0.21,0.3-0.46,0.55-0.76,0.76C5.67,15,4.92,15.22,4.04,15.22c-0.51,0-1-0.1-1.45-0.29
				c-0.45-0.19-0.85-0.46-1.19-0.8c-0.34-0.34-0.6-0.73-0.8-1.18c-0.19-0.45-0.29-0.94-0.29-1.45c0-0.11,0-0.22,0.01-0.33h1.23
				c-0.01,0.11-0.02,0.22-0.02,0.33c0,0.35,0.07,0.68,0.2,0.99c0.13,0.31,0.31,0.59,0.54,0.82c0.23,0.23,0.5,0.42,0.8,0.55
				c0.3,0.13,0.63,0.2,0.97,0.2c0.53,0,0.99-0.12,1.38-0.37c0.24-0.15,0.44-0.34,0.59-0.58L7.04,13.8z"/>
		</g>
		<circle class="st0" cx="4.12" cy="11.26" r="0.98"/>
	</g>
	<polygon class="st0" points="26.66,7.97 22.03,11.47 26.66,14.97 28.68,14.97 24.01,11.47 28.68,7.97 	"/>
	<g>
		<path class="st0" d="M11.38,17.37H0.49c-0.09,0-0.17-0.08-0.17-0.17v0c0-0.09,0.08-0.17,0.17-0.17h10.89
			c0.09,0,0.17,0.08,0.17,0.17v0C11.55,17.3,11.47,17.37,11.38,17.37z"/>
	</g>
</g>
</svg>
