<?xml version="1.0" encoding="utf-8"?>
<!-- Generator: Adobe Illustrator 25.4.1, SVG Export Plug-In . SVG Version: 6.00 Build 0)  -->
<svg version="1.1" id="Layer_1" xmlns="http://www.w3.org/2000/svg" xmlns:xlink="http://www.w3.org/1999/xlink" x="0px" y="0px"
	 viewBox="0 0 131 28" style="enable-background:new 0 0 131 28;" xml:space="preserve">
<style type="text/css">
	.st0{fill:#071130;}
	.st1{fill:#38C0E8;}
</style>
<g>
	<polygon class="st0" points="24.77,0.91 21.69,0.91 21.69,18.56 37.87,18.56 37.87,15.68 24.77,15.68 	"/>
	<rect x="40.35" y="0.91" class="st0" width="3.08" height="17.64"/>
	<path class="st0" d="M61.45,17.52c-0.01,0.01-0.01,0.01-0.02,0.02c-1.54,1.08-3.44,1.64-5.65,1.64c-1.28,0-2.51-0.25-3.65-0.74
		c-1.14-0.49-2.14-1.16-2.99-2.01c-0.85-0.85-1.52-1.85-2.01-2.98c-0.49-1.13-0.74-2.36-0.74-3.66c0-1.28,0.25-2.51,0.73-3.65
		C47.61,5,48.29,4,49.13,3.15c0.85-0.85,1.85-1.53,2.99-2.01c1.14-0.49,2.37-0.74,3.65-0.74c2.19,0,4.07,0.54,5.6,1.6l-2.63,1.98
		c-0.86-0.43-1.86-0.64-2.97-0.64c-0.85,0-1.67,0.17-2.43,0.51c-0.76,0.34-1.45,0.81-2.02,1.39c-0.58,0.58-1.04,1.28-1.36,2.06
		c-0.33,0.78-0.49,1.62-0.49,2.49c0,0.87,0.17,1.71,0.49,2.49c0.33,0.79,0.79,1.48,1.36,2.06c0.58,0.59,1.26,1.05,2.02,1.39
		c0.76,0.34,1.58,0.51,2.43,0.51c1.15,0,2.18-0.23,3.06-0.69L61.45,17.52z"/>
	<g>
		<path class="st1" d="M36.52,26.15h-3.94l-0.82,1.4h-1.42l4.23-6.88l4.17,6.88h-1.42L36.52,26.15z M35.89,25.05l-1.32-2.29
			l-1.35,2.29H35.89z"/>
		<path class="st1" d="M46.37,25.2v0.78c0,0.87-0.7,1.57-1.57,1.57h-5.28v-1.1h5.1c0.32,0,0.57-0.26,0.57-0.57V25.3
			c0-0.32-0.26-0.57-0.57-0.57h-3.67c-0.87,0-1.57-0.7-1.57-1.57v-0.78c0-0.87,0.7-1.57,1.57-1.57h5.06v1.1h-4.88
			c-0.32,0-0.57,0.26-0.57,0.57v0.58c0,0.32,0.26,0.57,0.57,0.57h3.67C45.67,23.63,46.37,24.33,46.37,25.2z"/>
		<path class="st1" d="M54.4,25.2v0.78c0,0.87-0.7,1.57-1.57,1.57h-5.28v-1.1h5.1c0.32,0,0.57-0.26,0.57-0.57V25.3
			c0-0.32-0.26-0.57-0.57-0.57h-3.67c-0.87,0-1.57-0.7-1.57-1.57v-0.78c0-0.87,0.7-1.57,1.57-1.57h5.06v1.1h-4.88
			c-0.32,0-0.57,0.26-0.57,0.57v0.58c0,0.32,0.26,0.57,0.57,0.57h3.67C53.7,23.63,54.4,24.33,54.4,25.2z"/>
		<path class="st1" d="M55.66,27.55v-6.73h1.18v6.73H55.66z"/>
		<path class="st1" d="M65.13,25.2v0.78c0,0.87-0.7,1.57-1.57,1.57h-5.28v-1.1h5.1c0.32,0,0.57-0.26,0.57-0.57V25.3
			c0-0.32-0.26-0.57-0.57-0.57h-3.67c-0.87,0-1.57-0.7-1.57-1.57v-0.78c0-0.87,0.7-1.57,1.57-1.57h5.06v1.1h-4.88
			c-0.32,0-0.57,0.26-0.57,0.57v0.58c0,0.32,0.26,0.57,0.57,0.57h3.67C64.43,23.63,65.13,24.33,65.13,25.2z"/>
		<path class="st1" d="M72.17,21.91h-2.62v5.63h-1.18v-5.63h-2.62v-1.1h6.42V21.91z"/>
	</g>
	<g>
		<g>
			<path class="st1" d="M17.31,3.53L14.7,5.28c-0.33-0.39-0.72-0.73-1.16-1.01c-0.97-0.62-2.13-0.93-3.47-0.93
				c-0.28,0-0.57,0.02-0.84,0.06V0.44C9.51,0.41,9.79,0.4,10.07,0.4c2.21,0,4.11,0.55,5.65,1.64C16.33,2.47,16.86,2.96,17.31,3.53z"
				/>
			<path class="st1" d="M17.63,15.62c-0.52,0.75-1.15,1.39-1.91,1.93c-1.54,1.08-3.44,1.63-5.65,1.63c-1.28,0-2.51-0.25-3.65-0.73
				c-1.14-0.49-2.14-1.16-2.99-2.01c-0.85-0.85-1.52-1.85-2.01-2.98s-0.74-2.36-0.74-3.66c0-0.28,0.01-0.55,0.03-0.82h3.09
				C3.77,9.24,3.76,9.51,3.76,9.79c0,0.87,0.17,1.71,0.49,2.49c0.33,0.78,0.79,1.48,1.37,2.06c0.58,0.58,1.25,1.05,2.02,1.39
				c0.76,0.34,1.58,0.51,2.43,0.51c1.34,0,2.5-0.31,3.47-0.93c0.6-0.38,1.1-0.87,1.49-1.45L17.63,15.62z"/>
		</g>
		<circle class="st0" cx="10.27" cy="9.21" r="2.47"/>
	</g>
	<polygon class="st0" points="67.07,0.91 55.41,9.73 67.07,18.56 72.17,18.56 60.39,9.73 72.17,0.91 	"/>
	<g>
		<path class="st0" d="M28.56,24.61H1.11c-0.24,0-0.43-0.19-0.43-0.43v0c0-0.24,0.19-0.43,0.43-0.43h27.45
			c0.24,0,0.43,0.19,0.43,0.43v0C28.99,24.42,28.8,24.61,28.56,24.61z"/>
	</g>
</g>
</svg>
