<?xml version="1.0" encoding="UTF-8"?>
<svg id="Layer_1" data-name="Layer 1" xmlns="http://www.w3.org/2000/svg" viewBox="0 0 261 56">
  <defs>
    <style>
      .cls-1 {
        fill: #071130;
      }

      .cls-2 {
        fill: #38c0e8;
      }
    </style>
  </defs>
  <g>
    <polygon class="cls-1" points="112.57 13.27 107.89 13.27 107.89 40.1 132.48 40.1 132.48 35.73 112.57 35.73 112.57 13.27"/>
    <rect class="cls-1" x="136.25" y="13.27" width="4.69" height="26.83"/>
    <path class="cls-1" d="m168.34,38.53s-.02.02-.04.03c-2.34,1.65-5.23,2.49-8.59,2.49-1.95,0-3.81-.38-5.55-1.12-1.73-.74-3.26-1.77-4.55-3.06-1.29-1.29-2.32-2.81-3.06-4.53-.74-1.72-1.12-3.59-1.12-5.57s.38-3.81,1.12-5.55c.74-1.73,1.77-3.26,3.06-4.55,1.29-1.29,2.82-2.32,4.55-3.06,1.73-.74,3.6-1.12,5.55-1.12,3.33,0,6.19.82,8.51,2.44l-4,3.02c-1.31-.65-2.83-.98-4.52-.98-1.29,0-2.54.26-3.7.77-1.16.52-2.2,1.22-3.07,2.11-.87.89-1.57,1.94-2.07,3.13-.5,1.19-.75,2.46-.75,3.79s.25,2.6.75,3.79c.5,1.19,1.2,2.25,2.07,3.13.87.89,1.91,1.6,3.07,2.11,1.16.51,2.41.77,3.7.77,1.75,0,3.31-.35,4.65-1.05l3.98,3.01Z"/>
    <g>
      <g>
        <path class="cls-2" d="m101.22,17.25l-3.97,2.66c-.5-.59-1.09-1.11-1.76-1.54-1.47-.94-3.25-1.41-5.28-1.41-.43,0-.86.03-1.28.09v-4.51c.42-.04.85-.06,1.28-.06,3.36,0,6.25.84,8.59,2.49.92.65,1.73,1.41,2.41,2.27Z"/>
        <path class="cls-2" d="m101.71,35.63c-.79,1.14-1.75,2.12-2.9,2.93-2.34,1.65-5.23,2.48-8.59,2.48-1.95,0-3.82-.38-5.55-1.12-1.73-.74-3.26-1.77-4.55-3.06-1.29-1.29-2.32-2.81-3.06-4.53s-1.12-3.59-1.12-5.57c0-.42.02-.84.05-1.25h4.7c-.05.41-.08.83-.08,1.25,0,1.33.25,2.6.75,3.79.5,1.19,1.2,2.24,2.08,3.13.87.89,1.91,1.6,3.07,2.11,1.16.51,2.4.77,3.7.77,2.03,0,3.81-.47,5.28-1.41.91-.58,1.67-1.32,2.27-2.21l3.95,2.68Z"/>
      </g>
      <circle class="cls-1" cx="90.52" cy="25.89" r="3.75"/>
    </g>
    <polygon class="cls-1" points="176.9 13.27 159.16 26.68 176.9 40.1 184.65 40.1 166.74 26.68 184.65 13.27 176.9 13.27"/>
    <rect class="cls-1" x="75.94" y="48" width="78.38" height="1.31" rx=".66" ry=".66"/>
  </g>
  <g>
    <path class="cls-1" d="m112.81,8.94h-4.74l-.99,1.68h-1.7l5.08-8.27,5.01,8.27h-1.7l-.97-1.68Zm-.76-1.32l-1.58-2.75-1.62,2.75h3.2Z"/>
    <path class="cls-1" d="m124.72,2.53v8.27l-6.78-5.45v5.28h-1.41V2.35l6.78,5.46V2.53h1.41Z"/>
    <path class="cls-1" d="m133.19,8.94h-4.74l-.99,1.68h-1.7l5.08-8.27,5.01,8.27h-1.7l-.97-1.68Zm-.76-1.32l-1.58-2.75-1.62,2.75h3.2Z"/>
    <path class="cls-1" d="m144.31,10.62h-7.41V2.53h1.41v6.77h6v1.32Z"/>
    <path class="cls-1" d="m148.52,7.37v3.25h-1.41v-3.25l-4.23-4.84h1.94l3,3.7,3-3.7h1.94l-4.23,4.84Z"/>
    <path class="cls-1" d="m160.76,3.85h-3.15v6.77h-1.41V3.85h-3.15v-1.32h7.72v1.32Z"/>
    <path class="cls-1" d="m161.89,10.62V2.53h1.41v8.09h-1.41Z"/>
    <path class="cls-1" d="m174.04,5.33h-1.41v-.79c0-.38-.31-.69-.69-.69h-4.8c-.38,0-.69.31-.69.69v4.08c0,.38.31.69.69.69h4.8c.38,0,.69-.31.69-.69v-.79h1.41v.91c0,1.04-.85,1.88-1.88,1.88h-5.23c-1.04,0-1.88-.84-1.88-1.88v-4.32c0-1.04.84-1.88,1.88-1.88h5.23c1.04,0,1.88.84,1.88,1.88v.91Z"/>
    <path class="cls-1" d="m183.77,7.8v.94c0,1.04-.84,1.88-1.88,1.88h-6.34v-1.32h6.13c.38,0,.69-.31.69-.69v-.69c0-.38-.31-.69-.69-.69h-4.41c-1.04,0-1.88-.84-1.88-1.88v-.94c0-1.04.84-1.88,1.88-1.88h6.09v1.32h-5.87c-.38,0-.69.31-.69.69v.69c0,.38.31.69.69.69h4.41c1.04,0,1.88.84,1.88,1.88Z"/>
  </g>
  <g>
    <path class="cls-2" d="m157.45,53.42v-10.06h1.76v10.06h-1.76Z"/>
    <path class="cls-2" d="m171.7,43.37v10.28l-8.44-6.78v6.56h-1.76v-10.28l8.44,6.79v-6.56h1.76Z"/>
    <path class="cls-2" d="m185.06,46.85h-1.76v-.99c0-.47-.38-.85-.85-.85h-5.96c-.47,0-.85.38-.85.85v5.07c0,.47.38.85.85.85h5.96c.47,0,.85-.38.85-.85v-.99h1.76v1.14c0,1.29-1.05,2.34-2.34,2.34h-6.5c-1.29,0-2.34-1.05-2.34-2.34v-5.37c0-1.29,1.05-2.34,2.34-2.34h6.5c1.29,0,2.34,1.05,2.34,2.34v1.14Z"/>
  </g>
</svg>