<?xml version="1.0" encoding="utf-8"?>
<!-- Generator: Adobe Illustrator 25.4.1, SVG Export Plug-In . SVG Version: 6.00 Build 0)  -->
<svg version="1.1" id="Layer_1" xmlns="http://www.w3.org/2000/svg" xmlns:xlink="http://www.w3.org/1999/xlink" x="0px" y="0px"
	 viewBox="0 0 45 49" style="enable-background:new 0 0 45 49;" xml:space="preserve">
<style type="text/css">
	.st0{fill:none;stroke:#38C0E8;stroke-width:3;stroke-linecap:round;stroke-linejoin:round;stroke-opacity:0.2;}
	.st1{fill:none;stroke:#38C0E8;stroke-width:3;stroke-linecap:round;stroke-linejoin:round;}
</style>
<path class="st0" d="M43.12,33.67V15.33c0-0.8-0.21-1.59-0.62-2.29c-0.4-0.7-0.98-1.27-1.68-1.68L24.79,2.2
	c-0.7-0.4-1.49-0.61-2.29-0.61S20.91,1.8,20.21,2.2L4.17,11.37c-0.7,0.4-1.27,0.98-1.68,1.68c-0.4,0.7-0.61,1.49-0.62,2.29v18.33
	c0,0.8,0.21,1.59,0.62,2.29s0.98,1.27,1.68,1.68l16.04,9.17c0.7,0.4,1.49,0.61,2.29,0.61s1.59-0.21,2.29-0.61l16.04-9.17
	c0.7-0.4,1.27-0.98,1.68-1.68C42.91,35.26,43.12,34.47,43.12,33.67z"/>
<path class="st1" d="M10.87,17.1l11.28,6.35l11.28-6.35"/>
<path class="st1" d="M22.5,36.13V25.56"/>
</svg>
