<?xml version="1.0" encoding="utf-8"?>
<!-- Generator: Adobe Illustrator 25.4.1, SVG Export Plug-In . SVG Version: 6.00 Build 0)  -->
<svg version="1.1" id="Layer_1" xmlns="http://www.w3.org/2000/svg" xmlns:xlink="http://www.w3.org/1999/xlink" x="0px" y="0px"
	 viewBox="0 0 49 49" style="enable-background:new 0 0 49 49;" xml:space="preserve">
<style type="text/css">
	.st0{fill:none;stroke:#38C0E8;stroke-width:2.5;stroke-linecap:round;stroke-linejoin:round;}
	.st1{fill:none;stroke:#38C0E8;stroke-width:2.5;stroke-linecap:round;stroke-linejoin:round;stroke-opacity:0.2;}
</style>
<path class="st0" d="M12.51,31.65l7.04-9.15l8.03,6.31l6.89-8.89"/>
<path class="st0" d="M42.5,11.28c2.5,0,4.52-2.02,4.52-4.52c0-2.5-2.02-4.52-4.52-4.52c-2.5,0-4.52,2.02-4.52,4.52
	C37.98,9.26,40,11.28,42.5,11.28z"/>
<path class="st1" d="M30.57,4.22H13.48C6.39,4.22,2,9.24,2,16.32v19.01c0,7.08,4.31,12.08,11.48,12.08h20.24
	c7.08,0,11.48-4.99,11.48-12.08V18.78"/>
</svg>
