<?xml version="1.0" encoding="utf-8"?>
<!-- Generator: Adobe Illustrator 25.4.1, SVG Export Plug-In . SVG Version: 6.00 Build 0)  -->
<svg version="1.1" id="Layer_1" xmlns="http://www.w3.org/2000/svg" xmlns:xlink="http://www.w3.org/1999/xlink" x="0px" y="0px"
	 viewBox="0 0 49 49" style="enable-background:new 0 0 49 49;" xml:space="preserve">
<style type="text/css">
	.st0{fill:none;stroke:#38C0E8;stroke-width:2;stroke-linecap:round;stroke-linejoin:round;stroke-opacity:0.25;}
	.st1{fill:none;stroke:#38C0E8;stroke-width:4;stroke-linecap:round;stroke-linejoin:round;}
</style>
<path class="st0" d="M40.71,40.7c-7,7-17.37,8.52-25.86,4.59c-1.25-0.5-2.28-0.91-3.26-0.91c-2.72,0.02-6.11,2.65-7.87,0.9
	c-1.76-1.76,0.88-5.15,0.88-7.88c0-0.98-0.39-1.99-0.9-3.24C-0.22,25.67,1.29,15.29,8.3,8.29c8.94-8.94,23.47-8.94,32.41,0
	C49.66,17.25,49.65,31.76,40.71,40.7z"/>
<path class="st1" d="M34.67,25.45h0.02"/>
<path class="st1" d="M25.49,25.45h0.02"/>
<path class="st1" d="M16.3,25.45h0.02"/>
</svg>
